ffmpeg started on 2026-03-30 at 17:11:32
Report written to "D:\Convert\FFMetrics\reports\psnr_report-6.txt"
Log level: 32
Command line:
ffmpeg -hide_banner -nostdin -r 24000/1001 -i "F:\\\xc0\xed\xe8\xec\xe5\\LightFamily\\\xdf \xef\xf0\xe8\xe1\xf0\xe0\xeb \xea \xf0\xf3\xea\xe0\xec \xe4\xe5\xe2\xf3\xf8\xea\xf3 \xe8 \xf2\xe5\xef\xe5\xf0\xfc \xff \xf3\xf7\xf3 \xe5\xb8 \xe2\xf1\xff\xea\xe8\xec \xef\xeb\xee\xf5\xe8\xec \xe2\xe5\xf9\xe0\xec\\LightFamilyDUB_\xdf_\xef\xf0\xe8\xe1\xf0\xe0\xeb_\xea_\xf0\xf3\xea\xe0\xec_\xe4\xe5\xe2\xf3\xf8\xea\xf3_\xe8_\xf2\xe5\xef\xe5\xf0\xfc_\xf3\xf7\xf3_\xe5\xb8_\xe2\xf1\xff\xea\xe8\xec_04_HEVC.mkv" -r 24000/1001 -i "F:\\\xc0\xed\xe8\xec\xe5\\LightFamily\\\xdf \xef\xf0\xe8\xe1\xf0\xe0\xeb \xea \xf0\xf3\xea\xe0\xec \xe4\xe5\xe2\xf3\xf8\xea\xf3 \xe8 \xf2\xe5\xef\xe5\xf0\xfc \xff \xf3\xf7\xf3 \xe5\xb8 \xe2\xf1\xff\xea\xe8\xec \xef\xeb\xee\xf5\xe8\xec \xe2\xe5\xf9\xe0\xec\\LightFamilyDUB_\xdf_\xef\xf0\xe8\xe1\xf0\xe0\xeb_\xea_\xf0\xf3\xea\xe0\xec_\xe4\xe5\xe2\xf3\xf8\xea\xf3_\xe8_\xf2\xe5\xef\xe5\xf0\xfc_\xf3\xf7\xf3_\xe5\xb8_\xe2\xf1\xff\xea\xe8\xec_04.mp4" -lavfi "[0:v]settb=AVTB,setpts=PTS-STARTPTS,format=pix_fmts=yuv420p10le,fps=24000/1001,scale=1920:1080:flags=lanczos:param0=3:out_range=limited:out_color_matrix=bt709:out_chroma_loc=left,setsar=1/1,setdar=(1920/1080)*(1/1),colorspace=format=yuv420p10:range=tv:primaries=bt709:trc=bt709:space=bt709:fast=0[main];[1:v]settb=AVTB,setpts=PTS-STARTPTS,format=pix_fmts=yuv420p,fps=24000/1001,scale=1920:1080:flags=lanczos:param0=3:out_range=limited:out_color_matrix=bt709:out_chroma_loc=left,setsar=1/1,setdar=(1920/1080)*(1/1),colorspace=format=yuv420p:range=tv:primaries=bt709:trc=bt709:space=bt709:fast=0[ref];[main][ref]psnr=eof_action=endall:stats_file='D\\:/Convert/FFMetrics/logs/psnr_logfile-6.txt'" -f null -
Input #0, matroska,webm, from 'F:\Аниме\LightFamily\Я прибрал к рукам девушку и теперь я учу её всяким плохим вещам\LightFamilyDUB_Я_прибрал_к_рукам_девушку_и_теперь_учу_её_всяким_04_HEVC.mkv':
  Metadata:
    COMPATIBLE_BRANDS: mp42mp41
    MAJOR_BRAND     : mp42
    MINOR_VERSION   : 0
    ENCODER         : Lavf61.7.100
  Duration: 00:23:40.12, start: -0.021000, bitrate: 1114 kb/s
  Stream #0:0(eng): Video: hevc (Main 10), yuv420p10le(tv, bt709, progressive), 1920x1080 [SAR 1:1 DAR 16:9], 23.98 fps, 23.98 tbr, 1k tbn (default)
      Metadata:
        HANDLER_NAME    : Mainconcept Video Media Handler
        VENDOR_ID       : [0][0][0][0]
        ENCODER         : Lavc61.19.100 libx265
        BPS             : 915214
        DURATION        : 00:23:40.085708333
        NUMBER_OF_FRAMES: 34048
        NUMBER_OF_BYTES : 162460373
        _STATISTICS_WRITING_APP: mkvpropedit v94.0 ('Initiate') 64-bit
        _STATISTICS_WRITING_DATE_UTC: 2026-03-29 15:35:10
        _STATISTICS_TAGS: BPS DURATION NUMBER_OF_FRAMES NUMBER_OF_BYTES
  Stream #0:1(eng): Audio: aac (LC), 48000 Hz, stereo, fltp (default)
      Metadata:
        HANDLER_NAME    : #Mainconcept MP4 Sound Media Handler
        VENDOR_ID       : [0][0][0][0]
        ENCODER         : Lavc61.19.100 aac
        BPS             : 195651
        DURATION        : 00:23:40.096000000
        NUMBER_OF_FRAMES: 66568
        NUMBER_OF_BYTES : 34730407
        _STATISTICS_WRITING_APP: mkvpropedit v94.0 ('Initiate') 64-bit
        _STATISTICS_WRITING_DATE_UTC: 2026-03-29 15:35:10
        _STATISTICS_TAGS: BPS DURATION NUMBER_OF_FRAMES NUMBER_OF_BYTES
Input #1, mov,mp4,m4a,3gp,3g2,mj2, from 'F:\Аниме\LightFamily\Я прибрал к рукам девушку и теперь я учу её всяким плохим вещам\LightFamilyDUB_Я_прибрал_к_рукам_девушку_и_теперь_учу_её_всяким_04.mp4':
  Metadata:
    major_brand     : mp42
    minor_version   : 0
    compatible_brands: mp42mp41
    creation_time   : 2025-07-24T14:27:29.000000Z
  Duration: 00:23:40.09, start: 0.000000, bitrate: 8384 kb/s
  Stream #1:0[0x1](eng): Video: h264 (Main) (avc1 / 0x31637661), yuv420p(tv, bt709, progressive), 1920x1080, 7999 kb/s, 23.98 fps, 23.98 tbr, 24k tbn (default)
      Metadata:
        creation_time   : 2025-07-24T14:27:29.000000Z
        handler_name    : Mainconcept Video Media Handler
        vendor_id       : [0][0][0][0]
        encoder         : AVC Coding
  Stream #1:1[0x2](eng): Audio: aac (LC) (mp4a / 0x6134706D), 48000 Hz, stereo, fltp, 381 kb/s (default)
      Metadata:
        creation_time   : 2025-07-24T14:27:29.000000Z
        handler_name    : #Mainconcept MP4 Sound Media Handler
        vendor_id       : [0][0][0][0]
Stream mapping:
  Stream #0:0 (hevc) -> settb:default
  Stream #1:0 (h264) -> settb:default
  psnr:default -> Stream #0:0 (wrapped_avframe)
  Stream #0:1 -> #0:1 (aac (native) -> pcm_s16le (native))
Output #0, null, to 'pipe:':
  Metadata:
    COMPATIBLE_BRANDS: mp42mp41
    MAJOR_BRAND     : mp42
    MINOR_VERSION   : 0
    encoder         : Lavf61.7.100
  Stream #0:0: Video: wrapped_avframe, yuv420p10le(tv, bt709, progressive), 1920x1080 [SAR 1:1 DAR 16:9], q=2-31, 200 kb/s, 23.98 fps, 23.98 tbn
      Metadata:
        encoder         : Lavc61.19.100 wrapped_avframe
  Stream #0:1(eng): Audio: pcm_s16le, 48000 Hz, stereo, s16, 1536 kb/s (default)
      Metadata:
        HANDLER_NAME    : #Mainconcept MP4 Sound Media Handler
        VENDOR_ID       : [0][0][0][0]
        _STATISTICS_TAGS: BPS DURATION NUMBER_OF_FRAMES NUMBER_OF_BYTES
        BPS             : 195651
        DURATION        : 00:23:40.096000000
        NUMBER_OF_FRAMES: 66568
        NUMBER_OF_BYTES : 34730407
        _STATISTICS_WRITING_APP: mkvpropedit v94.0 ('Initiate') 64-bit
        _STATISTICS_WRITING_DATE_UTC: 2026-03-29 15:35:10
        encoder         : Lavc61.19.100 pcm_s16le
frame=  148 fps=0.0 q=-0.0 size=N/A time=00:00:06.17 bitrate=N/A speed=11.9x    frame=  325 fps=315 q=-0.0 size=N/A time=00:00:13.55 bitrate=N/A speed=13.1x    frame=  504 fps=326 q=-0.0 size=N/A time=00:00:21.02 bitrate=N/A speed=13.6x    frame=  687 fps=334 q=-0.0 size=N/A time=00:00:28.65 bitrate=N/A speed=13.9x    frame=  877 fps=340 q=-0.0 size=N/A time=00:00:36.57 bitrate=N/A speed=14.2x    frame= 1056 fps=342 q=-0.0 size=N/A time=00:00:44.04 bitrate=N/A speed=14.3x    frame= 1230 fps=341 q=-0.0 size=N/A time=00:00:51.30 bitrate=N/A speed=14.2x    frame= 1384 fps=335 q=-0.0 size=N/A time=00:00:57.72 bitrate=N/A speed=  14x    frame= 1570 fps=338 q=-0.0 size=N/A time=00:01:05.48 bitrate=N/A speed=14.1x    frame= 1752 fps=340 q=-0.0 size=N/A time=00:01:13.07 bitrate=N/A speed=14.2x    frame= 1940 fps=343 q=-0.0 size=N/A time=00:01:20.91 bitrate=N/A speed=14.3x    frame= 2134 fps=345 q=-0.0 size=N/A time=00:01:29.00 bitrate=N/A speed=14.4x    frame= 2242 fps=335 q=-0.0 size=N/A time=00:01:33.51 bitrate=N/A speed=  14x    frame= 2424 fps=336 q=-0.0 size=N/A time=00:01:41.10 bitrate=N/A speed=  14x    frame= 2617 fps=338 q=-0.0 size=N/A time=00:01:49.15 bitrate=N/A speed=14.1x    frame= 2796 fps=339 q=-0.0 size=N/A time=00:01:56.61 bitrate=N/A speed=14.1x    frame= 2977 fps=340 q=-0.0 size=N/A time=00:02:04.16 bitrate=N/A speed=14.2x    frame= 3165 fps=341 q=-0.0 size=N/A time=00:02:12.00 bitrate=N/A speed=14.2x    frame= 3359 fps=343 q=-0.0 size=N/A time=00:02:20.09 bitrate=N/A speed=14.3x    frame= 3525 fps=342 q=-0.0 size=N/A time=00:02:27.02 bitrate=N/A speed=14.3x    frame= 3730 fps=344 q=-0.0 size=N/A time=00:02:35.57 bitrate=N/A speed=14.4x    frame= 3918 fps=345 q=-0.0 size=N/A time=00:02:43.41 bitrate=N/A speed=14.4x    frame= 4107 fps=346 q=-0.0 size=N/A time=00:02:51.29 bitrate=N/A speed=14.5x    frame= 4306 fps=348 q=-0.0 size=N/A time=00:02:59.59 bitrate=N/A speed=14.5x    frame= 4463 fps=346 q=-0.0 size=N/A time=00:03:06.14 bitrate=N/A speed=14.4x    frame= 4595 fps=343 q=-0.0 size=N/A time=00:03:11.64 bitrate=N/A speed=14.3x    frame= 4735 fps=340 q=-0.0 size=N/A time=00:03:17.48 bitrate=N/A speed=14.2x    frame= 4913 fps=340 q=-0.0 size=N/A time=00:03:24.91 bitrate=N/A speed=14.2x    frame= 5096 fps=341 q=-0.0 size=N/A time=00:03:32.54 bitrate=N/A speed=14.2x    frame= 5290 fps=342 q=-0.0 size=N/A time=00:03:40.63 bitrate=N/A speed=14.3x    frame= 5453 fps=341 q=-0.0 size=N/A time=00:03:47.43 bitrate=N/A speed=14.2x    frame= 5607 fps=340 q=-0.0 size=N/A time=00:03:53.85 bitrate=N/A speed=14.2x    frame= 5745 fps=338 q=-0.0 size=N/A time=00:03:59.61 bitrate=N/A speed=14.1x    frame= 5879 fps=336 q=-0.0 size=N/A time=00:04:05.20 bitrate=N/A speed=  14x    frame= 6024 fps=334 q=-0.0 size=N/A time=00:04:11.25 bitrate=N/A speed=13.9x    frame= 6174 fps=333 q=-0.0 size=N/A time=00:04:17.50 bitrate=N/A speed=13.9x    frame= 6330 fps=332 q=-0.0 size=N/A time=00:04:24.01 bitrate=N/A speed=13.8x    frame= 6481 fps=331 q=-0.0 size=N/A time=00:04:30.31 bitrate=N/A speed=13.8x    frame= 6663 fps=331 q=-0.0 size=N/A time=00:04:37.90 bitrate=N/A speed=13.8x    frame= 6842 fps=332 q=-0.0 size=N/A time=00:04:45.36 bitrate=N/A speed=13.8x    frame= 7037 fps=333 q=-0.0 size=N/A time=00:04:53.50 bitrate=N/A speed=13.9x    frame= 7226 fps=334 q=-0.0 size=N/A time=00:05:01.38 bitrate=N/A speed=13.9x    frame= 7415 fps=334 q=-0.0 size=N/A time=00:05:09.26 bitrate=N/A speed=  14x    frame= 7612 fps=335 q=-0.0 size=N/A time=00:05:17.48 bitrate=N/A speed=  14x    frame= 7803 fps=336 q=-0.0 size=N/A time=00:05:25.45 bitrate=N/A speed=  14x    frame= 7989 fps=337 q=-0.0 size=N/A time=00:05:33.20 bitrate=N/A speed=14.1x    frame= 8186 fps=338 q=-0.0 size=N/A time=00:05:41.42 bitrate=N/A speed=14.1x    frame= 8372 fps=338 q=-0.0 size=N/A time=00:05:49.18 bitrate=N/A speed=14.1x    frame= 8548 fps=338 q=-0.0 size=N/A time=00:05:56.52 bitrate=N/A speed=14.1x    frame= 8731 fps=338 q=-0.0 size=N/A time=00:06:04.15 bitrate=N/A speed=14.1x    frame= 8927 fps=339 q=-0.0 size=N/A time=00:06:12.33 bitrate=N/A speed=14.1x    frame= 9116 fps=340 q=-0.0 size=N/A time=00:06:20.21 bitrate=N/A speed=14.2x    frame= 9302 fps=340 q=-0.0 size=N/A time=00:06:27.97 bitrate=N/A speed=14.2x    frame= 9494 fps=341 q=-0.0 size=N/A time=00:06:35.97 bitrate=N/A speed=14.2x    frame= 9670 fps=341 q=-0.0 size=N/A time=00:06:43.31 bitrate=N/A speed=14.2x    frame= 9852 fps=341 q=-0.0 size=N/A time=00:06:50.91 bitrate=N/A speed=14.2x    frame=10041 fps=341 q=-0.0 size=N/A time=00:06:58.79 bitrate=N/A speed=14.2x    frame=10244 fps=342 q=-0.0 size=N/A time=00:07:07.26 bitrate=N/A speed=14.3x    frame=10419 fps=342 q=-0.0 size=N/A time=00:07:14.55 bitrate=N/A speed=14.3x    frame=10606 fps=343 q=-0.0 size=N/A time=00:07:22.35 bitrate=N/A speed=14.3x    frame=10771 fps=342 q=-0.0 size=N/A time=00:07:29.24 bitrate=N/A speed=14.3x    frame=10928 fps=342 q=-0.0 size=N/A time=00:07:35.78 bitrate=N/A speed=14.2x    frame=11108 fps=342 q=-0.0 size=N/A time=00:07:43.29 bitrate=N/A speed=14.2x    frame=11281 fps=342 q=-0.0 size=N/A time=00:07:50.51 bitrate=N/A speed=14.2x    frame=11462 fps=342 q=-0.0 size=N/A time=00:07:58.06 bitrate=N/A speed=14.2x    frame=11651 fps=342 q=-0.0 size=N/A time=00:08:05.94 bitrate=N/A speed=14.3x    frame=11838 fps=342 q=-0.0 size=N/A time=00:08:13.74 bitrate=N/A speed=14.3x    frame=12012 fps=342 q=-0.0 size=N/A time=00:08:21.00 bitrate=N/A speed=14.3x    frame=12203 fps=343 q=-0.0 size=N/A time=00:08:28.96 bitrate=N/A speed=14.3x    frame=12388 fps=343 q=-0.0 size=N/A time=00:08:36.68 bitrate=N/A speed=14.3x    frame=12576 fps=343 q=-0.0 size=N/A time=00:08:44.52 bitrate=N/A speed=14.3x    frame=12774 fps=344 q=-0.0 size=N/A time=00:08:52.78 bitrate=N/A speed=14.3x    frame=12963 fps=344 q=-0.0 size=N/A time=00:09:00.66 bitrate=N/A speed=14.4x    frame=13154 fps=344 q=-0.0 size=N/A time=00:09:08.63 bitrate=N/A speed=14.4x    frame=13343 fps=345 q=-0.0 size=N/A time=00:09:16.51 bitrate=N/A speed=14.4x    frame=13529 fps=345 q=-0.0 size=N/A time=00:09:24.27 bitrate=N/A speed=14.4x    frame=13736 fps=346 q=-0.0 size=N/A time=00:09:32.90 bitrate=N/A speed=14.4x    frame=13912 fps=346 q=-0.0 size=N/A time=00:09:40.24 bitrate=N/A speed=14.4x    frame=14080 fps=345 q=-0.0 size=N/A time=00:09:47.25 bitrate=N/A speed=14.4x    frame=14278 fps=346 q=-0.0 size=N/A time=00:09:55.51 bitrate=N/A speed=14.4x    frame=14457 fps=346 q=-0.0 size=N/A time=00:10:02.97 bitrate=N/A speed=14.4x    frame=14634 fps=346 q=-0.0 size=N/A time=00:10:10.35 bitrate=N/A speed=14.4x    frame=14818 fps=346 q=-0.0 size=N/A time=00:10:18.03 bitrate=N/A speed=14.4x    frame=15005 fps=346 q=-0.0 size=N/A time=00:10:25.83 bitrate=N/A speed=14.4x    frame=15207 fps=347 q=-0.0 size=N/A time=00:10:34.25 bitrate=N/A speed=14.5x    frame=15384 fps=347 q=-0.0 size=N/A time=00:10:41.64 bitrate=N/A speed=14.5x    frame=15578 fps=347 q=-0.0 size=N/A time=00:10:49.73 bitrate=N/A speed=14.5x    frame=15769 fps=347 q=-0.0 size=N/A time=00:10:57.69 bitrate=N/A speed=14.5x    frame=15944 fps=347 q=-0.0 size=N/A time=00:11:04.99 bitrate=N/A speed=14.5x    frame=16104 fps=347 q=-0.0 size=N/A time=00:11:11.67 bitrate=N/A speed=14.5x    frame=16250 fps=346 q=-0.0 size=N/A time=00:11:17.76 bitrate=N/A speed=14.4x    frame=16410 fps=346 q=-0.0 size=N/A time=00:11:24.43 bitrate=N/A speed=14.4x    frame=16593 fps=346 q=-0.0 size=N/A time=00:11:32.06 bitrate=N/A speed=14.4x    frame=16774 fps=346 q=-0.0 size=N/A time=00:11:39.61 bitrate=N/A speed=14.4x    frame=16960 fps=346 q=-0.0 size=N/A time=00:11:47.37 bitrate=N/A speed=14.4x    frame=17144 fps=346 q=-0.0 size=N/A time=00:11:55.04 bitrate=N/A speed=14.4x    frame=17336 fps=346 q=-0.0 size=N/A time=00:12:03.05 bitrate=N/A speed=14.4x    frame=17530 fps=347 q=-0.0 size=N/A time=00:12:11.14 bitrate=N/A speed=14.5x    frame=17719 fps=347 q=-0.0 size=N/A time=00:12:19.02 bitrate=N/A speed=14.5x    frame=17909 fps=347 q=-0.0 size=N/A time=00:12:26.95 bitrate=N/A speed=14.5x    frame=18101 fps=347 q=-0.0 size=N/A time=00:12:34.96 bitrate=N/A speed=14.5x    frame=18297 fps=348 q=-0.0 size=N/A time=00:12:43.13 bitrate=N/A speed=14.5x    frame=18487 fps=348 q=-0.0 size=N/A time=00:12:51.06 bitrate=N/A speed=14.5x    frame=18675 fps=348 q=-0.0 size=N/A time=00:12:58.90 bitrate=N/A speed=14.5x    frame=18870 fps=348 q=-0.0 size=N/A time=00:13:07.03 bitrate=N/A speed=14.5x    frame=19056 fps=348 q=-0.0 size=N/A time=00:13:14.79 bitrate=N/A speed=14.5x    frame=19249 fps=349 q=-0.0 size=N/A time=00:13:22.84 bitrate=N/A speed=14.5x    frame=19440 fps=349 q=-0.0 size=N/A time=00:13:30.81 bitrate=N/A speed=14.6x    frame=19630 fps=349 q=-0.0 size=N/A time=00:13:38.73 bitrate=N/A speed=14.6x    frame=19823 fps=349 q=-0.0 size=N/A time=00:13:46.78 bitrate=N/A speed=14.6x    frame=20009 fps=349 q=-0.0 size=N/A time=00:13:54.54 bitrate=N/A speed=14.6x    frame=20215 fps=350 q=-0.0 size=N/A time=00:14:03.13 bitrate=N/A speed=14.6x    frame=20390 fps=350 q=-0.0 size=N/A time=00:14:10.43 bitrate=N/A speed=14.6x    frame=20563 fps=350 q=-0.0 size=N/A time=00:14:17.64 bitrate=N/A speed=14.6x    frame=20758 fps=350 q=-0.0 size=N/A time=00:14:25.78 bitrate=N/A speed=14.6x    frame=20953 fps=350 q=-0.0 size=N/A time=00:14:33.91 bitrate=N/A speed=14.6x    frame=21138 fps=350 q=-0.0 size=N/A time=00:14:41.63 bitrate=N/A speed=14.6x    frame=21309 fps=350 q=-0.0 size=N/A time=00:14:48.76 bitrate=N/A speed=14.6x    frame=21506 fps=350 q=-0.0 size=N/A time=00:14:56.97 bitrate=N/A speed=14.6x    frame=21696 fps=350 q=-0.0 size=N/A time=00:15:04.90 bitrate=N/A speed=14.6x    frame=21884 fps=351 q=-0.0 size=N/A time=00:15:12.74 bitrate=N/A speed=14.6x    frame=22064 fps=351 q=-0.0 size=N/A time=00:15:20.25 bitrate=N/A speed=14.6x    frame=22244 fps=351 q=-0.0 size=N/A time=00:15:27.76 bitrate=N/A speed=14.6x    frame=22439 fps=351 q=-0.0 size=N/A time=00:15:35.89 bitrate=N/A speed=14.6x    frame=22612 fps=351 q=-0.0 size=N/A time=00:15:43.10 bitrate=N/A speed=14.6x    frame=22801 fps=351 q=-0.0 size=N/A time=00:15:50.99 bitrate=N/A speed=14.6x    frame=22987 fps=351 q=-0.0 size=N/A time=00:15:58.74 bitrate=N/A speed=14.6x    frame=23178 fps=351 q=-0.0 size=N/A time=00:16:06.71 bitrate=N/A speed=14.6x    frame=23365 fps=351 q=-0.0 size=N/A time=00:16:14.51 bitrate=N/A speed=14.6x    frame=23534 fps=351 q=-0.0 size=N/A time=00:16:21.56 bitrate=N/A speed=14.6x    frame=23725 fps=351 q=-0.0 size=N/A time=00:16:29.53 bitrate=N/A speed=14.6x    frame=23910 fps=351 q=-0.0 size=N/A time=00:16:37.24 bitrate=N/A speed=14.6x    frame=24098 fps=351 q=-0.0 size=N/A time=00:16:45.08 bitrate=N/A speed=14.6x    frame=24286 fps=351 q=-0.0 size=N/A time=00:16:52.92 bitrate=N/A speed=14.7x    frame=24475 fps=351 q=-0.0 size=N/A time=00:17:00.81 bitrate=N/A speed=14.7x    frame=24669 fps=352 q=-0.0 size=N/A time=00:17:08.90 bitrate=N/A speed=14.7x    frame=24859 fps=352 q=-0.0 size=N/A time=00:17:16.82 bitrate=N/A speed=14.7x    frame=25047 fps=352 q=-0.0 size=N/A time=00:17:24.66 bitrate=N/A speed=14.7x    frame=25231 fps=352 q=-0.0 size=N/A time=00:17:32.34 bitrate=N/A speed=14.7x    frame=25432 fps=352 q=-0.0 size=N/A time=00:17:40.72 bitrate=N/A speed=14.7x    frame=25609 fps=352 q=-0.0 size=N/A time=00:17:48.10 bitrate=N/A speed=14.7x    frame=25801 fps=352 q=-0.0 size=N/A time=00:17:56.11 bitrate=N/A speed=14.7x    frame=25988 fps=352 q=-0.0 size=N/A time=00:18:03.91 bitrate=N/A speed=14.7x    frame=26187 fps=353 q=-0.0 size=N/A time=00:18:12.21 bitrate=N/A speed=14.7x    frame=26375 fps=353 q=-0.0 size=N/A time=00:18:20.05 bitrate=N/A speed=14.7x    frame=26547 fps=353 q=-0.0 size=N/A time=00:18:27.23 bitrate=N/A speed=14.7x    frame=26748 fps=353 q=-0.0 size=N/A time=00:18:35.61 bitrate=N/A speed=14.7x    frame=26945 fps=353 q=-0.0 size=N/A time=00:18:43.83 bitrate=N/A speed=14.7x    frame=27129 fps=353 q=-0.0 size=N/A time=00:18:51.50 bitrate=N/A speed=14.7x    frame=27321 fps=353 q=-0.0 size=N/A time=00:18:59.51 bitrate=N/A speed=14.7x    frame=27527 fps=353 q=-0.0 size=N/A time=00:19:08.10 bitrate=N/A speed=14.7x    frame=27712 fps=353 q=-0.0 size=N/A time=00:19:15.82 bitrate=N/A speed=14.7x    frame=27908 fps=354 q=-0.0 size=N/A time=00:19:23.99 bitrate=N/A speed=14.7x    frame=28092 fps=354 q=-0.0 size=N/A time=00:19:31.67 bitrate=N/A speed=14.8x    frame=28288 fps=354 q=-0.0 size=N/A time=00:19:39.84 bitrate=N/A speed=14.8x    frame=28477 fps=354 q=-0.0 size=N/A time=00:19:47.72 bitrate=N/A speed=14.8x    frame=28661 fps=354 q=-0.0 size=N/A time=00:19:55.40 bitrate=N/A speed=14.8x    frame=28839 fps=354 q=-0.0 size=N/A time=00:20:02.82 bitrate=N/A speed=14.8x    frame=29031 fps=354 q=-0.0 size=N/A time=00:20:10.83 bitrate=N/A speed=14.8x    frame=29212 fps=354 q=-0.0 size=N/A time=00:20:18.38 bitrate=N/A speed=14.8x    frame=29399 fps=354 q=-0.0 size=N/A time=00:20:26.18 bitrate=N/A speed=14.8x    frame=29588 fps=354 q=-0.0 size=N/A time=00:20:34.06 bitrate=N/A speed=14.8x    frame=29775 fps=354 q=-0.0 size=N/A time=00:20:41.86 bitrate=N/A speed=14.8x    frame=29963 fps=354 q=-0.0 size=N/A time=00:20:49.70 bitrate=N/A speed=14.8x    frame=30125 fps=354 q=-0.0 size=N/A time=00:20:56.46 bitrate=N/A speed=14.8x    frame=30319 fps=354 q=-0.0 size=N/A time=00:21:04.55 bitrate=N/A speed=14.8x    frame=30506 fps=354 q=-0.0 size=N/A time=00:21:12.35 bitrate=N/A speed=14.8x    frame=30690 fps=354 q=-0.0 size=N/A time=00:21:20.02 bitrate=N/A speed=14.8x    frame=30891 fps=354 q=-0.0 size=N/A time=00:21:28.41 bitrate=N/A speed=14.8x    frame=31076 fps=354 q=-0.0 size=N/A time=00:21:36.12 bitrate=N/A speed=14.8x    frame=31258 fps=354 q=-0.0 size=N/A time=00:21:43.71 bitrate=N/A speed=14.8x    frame=31449 fps=355 q=-0.0 size=N/A time=00:21:51.68 bitrate=N/A speed=14.8x    frame=31628 fps=354 q=-0.0 size=N/A time=00:21:59.15 bitrate=N/A speed=14.8x    frame=31800 fps=354 q=-0.0 size=N/A time=00:22:06.32 bitrate=N/A speed=14.8x    frame=31964 fps=354 q=-0.0 size=N/A time=00:22:13.16 bitrate=N/A speed=14.8x    frame=32145 fps=354 q=-0.0 size=N/A time=00:22:20.71 bitrate=N/A speed=14.8x    frame=32330 fps=354 q=-0.0 size=N/A time=00:22:28.43 bitrate=N/A speed=14.8x    frame=32482 fps=354 q=-0.0 size=N/A time=00:22:34.77 bitrate=N/A speed=14.8x    frame=32629 fps=353 q=-0.0 size=N/A time=00:22:40.90 bitrate=N/A speed=14.7x    frame=32800 fps=353 q=-0.0 size=N/A time=00:22:48.03 bitrate=N/A speed=14.7x    frame=32951 fps=353 q=-0.0 size=N/A time=00:22:54.33 bitrate=N/A speed=14.7x    frame=33130 fps=353 q=-0.0 size=N/A time=00:23:01.79 bitrate=N/A speed=14.7x    frame=33304 fps=353 q=-0.0 size=N/A time=00:23:09.05 bitrate=N/A speed=14.7x    frame=33475 fps=353 q=-0.0 size=N/A time=00:23:16.18 bitrate=N/A speed=14.7x    frame=33646 fps=353 q=-0.0 size=N/A time=00:23:23.31 bitrate=N/A speed=14.7x    frame=33829 fps=353 q=-0.0 size=N/A time=00:23:30.95 bitrate=N/A speed=14.7x    frame=34013 fps=353 q=-0.0 size=N/A time=00:23:38.62 bitrate=N/A speed=14.7x    [Parsed_psnr_16 @ 00000208e030b440] PSNR y:47.477697 u:51.014510 v:51.243269 average:48.390077 min:38.906513 max:74.253186
[out#0/null @ 00000208d2f47d40] video:14630KiB audio:266272KiB subtitle:0KiB other streams:0KiB global headers:0KiB muxing overhead: unknown
frame=34048 fps=353 q=-0.0 Lsize=N/A time=00:23:40.08 bitrate=N/A speed=14.7x    
